<svg width="74" height="75" viewBox="0 0 74 75" fill="none" xmlns="http://www.w3.org/2000/svg">
<ellipse cx="37" cy="37.5" rx="37" ry="37.5" fill="#91C499" fill-opacity="0.29"/>
<g filter="url(#filter0_d)">
<path d="M13.0717 27.8163L58.7545 16.0072L43.6594 60.9072C18.9597 59.117 12.9761 38.1007 13.0717 27.8163Z" fill="#FFB8A3"/>
</g>
<path d="M13.1205 27.9131C13.2914 38.1389 19.5932 59.0508 43.4331 60.8926" stroke="#91C499" stroke-width="3" stroke-linecap="round"/>
<path d="M39.5924 35.8095L41.1627 35.3208L40.1526 36.6314C39.3092 36.7345 39.4278 36.1264 39.5924 35.8095Z" fill="black" stroke="black" stroke-linecap="round" stroke-linejoin="round"/>
<path d="M37.2689 42.4863L38.8392 41.9976L37.8291 43.3081C36.9858 43.4112 37.1043 42.8032 37.2689 42.4863Z" fill="black" stroke="black" stroke-linecap="round" stroke-linejoin="round"/>
<path d="M24.6442 34.9036L26.2145 34.415L25.2044 35.7255C24.361 35.8286 24.4795 35.2205 24.6442 34.9036Z" fill="black" stroke="black" stroke-linecap="round" stroke-linejoin="round"/>
<path d="M30.0869 43.1102L31.6572 42.6215L30.6471 43.932C29.8038 44.0351 29.9223 43.4271 30.0869 43.1102Z" fill="black" stroke="black" stroke-linecap="round" stroke-linejoin="round"/>
<path d="M29.88 28.8005L31.4503 28.3118L30.4402 29.6223C29.5968 29.7254 29.7154 29.1174 29.88 28.8005Z" fill="black" stroke="black" stroke-linecap="round" stroke-linejoin="round"/>
<path d="M32.6037 35.4522L34.174 34.9635L33.1639 36.2741C32.3205 36.3772 32.439 35.7691 32.6037 35.4522Z" fill="black" stroke="black" stroke-linecap="round" stroke-linejoin="round"/>
<defs>
<filter id="filter0_d" x="9.07062" y="16.0072" width="53.6839" height="52.9" filterUnits="userSpaceOnUse" color-interpolation-filters="sRGB">
<feFlood flood-opacity="0" result="BackgroundImageFix"/>
<feColorMatrix in="SourceAlpha" type="matrix" values="0 0 0 0 0 0 0 0 0 0 0 0 0 0 0 0 0 0 127 0"/>
<feOffset dy="4"/>
<feGaussianBlur stdDeviation="2"/>
<feColorMatrix type="matrix" values="0 0 0 0 0 0 0 0 0 0 0 0 0 0 0 0 0 0 0.25 0"/>
<feBlend mode="normal" in2="BackgroundImageFix" result="effect1_dropShadow"/>
<feBlend mode="normal" in="SourceGraphic" in2="effect1_dropShadow" result="shape"/>
</filter>
</defs>
</svg>
