<svg width="143" height="19" viewBox="0 0 143 19" fill="none" xmlns="http://www.w3.org/2000/svg">
<path d="M6.368 18.144C5.12 18.144 3.92 17.944 2.768 17.544C1.632 17.144 0.752 16.616 0.128 15.96L0.824 14.592C1.432 15.2 2.24 15.696 3.248 16.08C4.256 16.448 5.296 16.632 6.368 16.632C7.872 16.632 9 16.36 9.752 15.816C10.504 15.256 10.88 14.536 10.88 13.656C10.88 12.984 10.672 12.448 10.256 12.048C9.856 11.648 9.36 11.344 8.768 11.136C8.176 10.912 7.352 10.672 6.296 10.416C5.032 10.096 4.024 9.792 3.272 9.504C2.52 9.2 1.872 8.744 1.328 8.136C0.8 7.528 0.536 6.704 0.536 5.664C0.536 4.816 0.76 4.048 1.208 3.36C1.656 2.656 2.344 2.096 3.272 1.68C4.2 1.264 5.352 1.056 6.728 1.056C7.688 1.056 8.624 1.192 9.536 1.464C10.464 1.72 11.264 2.08 11.936 2.544L11.336 3.96C10.632 3.496 9.88 3.152 9.08 2.928C8.28 2.688 7.496 2.568 6.728 2.568C5.256 2.568 4.144 2.856 3.392 3.432C2.656 3.992 2.288 4.72 2.288 5.616C2.288 6.288 2.488 6.832 2.888 7.248C3.304 7.648 3.816 7.96 4.424 8.184C5.048 8.392 5.88 8.624 6.92 8.88C8.152 9.184 9.144 9.488 9.896 9.792C10.664 10.08 11.312 10.528 11.84 11.136C12.368 11.728 12.632 12.536 12.632 13.56C12.632 14.408 12.4 15.184 11.936 15.888C11.488 16.576 10.792 17.128 9.848 17.544C8.904 17.944 7.744 18.144 6.368 18.144ZM21.3736 18.12C20.1256 18.12 19.0056 17.848 18.0136 17.304C17.0376 16.76 16.2696 16 15.7096 15.024C15.1496 14.032 14.8696 12.92 14.8696 11.688C14.8696 10.456 15.1496 9.352 15.7096 8.376C16.2696 7.4 17.0376 6.64 18.0136 6.096C19.0056 5.552 20.1256 5.28 21.3736 5.28C22.4616 5.28 23.4296 5.496 24.2776 5.928C25.1416 6.344 25.8216 6.96 26.3176 7.776L25.0456 8.64C24.6296 8.016 24.1016 7.552 23.4616 7.248C22.8216 6.928 22.1256 6.768 21.3736 6.768C20.4616 6.768 19.6376 6.976 18.9016 7.392C18.1816 7.792 17.6136 8.368 17.1976 9.12C16.7976 9.872 16.5976 10.728 16.5976 11.688C16.5976 12.664 16.7976 13.528 17.1976 14.28C17.6136 15.016 18.1816 15.592 18.9016 16.008C19.6376 16.408 20.4616 16.608 21.3736 16.608C22.1256 16.608 22.8216 16.456 23.4616 16.152C24.1016 15.848 24.6296 15.384 25.0456 14.76L26.3176 15.624C25.8216 16.44 25.1416 17.064 24.2776 17.496C23.4136 17.912 22.4456 18.12 21.3736 18.12ZM31.2971 7.848C31.6971 7 32.2891 6.36 33.0731 5.928C33.8731 5.496 34.8571 5.28 36.0251 5.28V6.936L35.6171 6.912C34.2891 6.912 33.2491 7.32 32.4971 8.136C31.7451 8.952 31.3691 10.096 31.3691 11.568V18H29.6651V5.376H31.2971V7.848ZM44.1532 18.12C42.9372 18.12 41.8412 17.848 40.8652 17.304C39.8892 16.744 39.1212 15.976 38.5612 15C38.0012 14.024 37.7212 12.92 37.7212 11.688C37.7212 10.456 38.0012 9.352 38.5612 8.376C39.1212 7.4 39.8892 6.64 40.8652 6.096C41.8412 5.552 42.9372 5.28 44.1532 5.28C45.3692 5.28 46.4652 5.552 47.4412 6.096C48.4172 6.64 49.1772 7.4 49.7212 8.376C50.2812 9.352 50.5612 10.456 50.5612 11.688C50.5612 12.92 50.2812 14.024 49.7212 15C49.1772 15.976 48.4172 16.744 47.4412 17.304C46.4652 17.848 45.3692 18.12 44.1532 18.12ZM44.1532 16.608C45.0492 16.608 45.8492 16.408 46.5532 16.008C47.2732 15.592 47.8332 15.008 48.2332 14.256C48.6332 13.504 48.8332 12.648 48.8332 11.688C48.8332 10.728 48.6332 9.872 48.2332 9.12C47.8332 8.368 47.2732 7.792 46.5532 7.392C45.8492 6.976 45.0492 6.768 44.1532 6.768C43.2572 6.768 42.4492 6.976 41.7292 7.392C41.0252 7.792 40.4652 8.368 40.0492 9.12C39.6492 9.872 39.4492 10.728 39.4492 11.688C39.4492 12.648 39.6492 13.504 40.0492 14.256C40.4652 15.008 41.0252 15.592 41.7292 16.008C42.4492 16.408 43.2572 16.608 44.1532 16.608ZM57.5921 18.12C56.4561 18.12 55.5761 17.8 54.9521 17.16C54.3441 16.52 54.0401 15.632 54.0401 14.496V0.191999H55.7441V14.352C55.7441 15.104 55.9201 15.68 56.2721 16.08C56.6241 16.464 57.1521 16.656 57.8561 16.656C58.3041 16.656 58.6881 16.584 59.0081 16.44L59.1281 17.856C58.6321 18.032 58.1201 18.12 57.5921 18.12ZM64.9983 18.12C63.8623 18.12 62.9823 17.8 62.3583 17.16C61.7503 16.52 61.4463 15.632 61.4463 14.496V0.191999H63.1503V14.352C63.1503 15.104 63.3263 15.68 63.6783 16.08C64.0303 16.464 64.5583 16.656 65.2623 16.656C65.7103 16.656 66.0943 16.584 66.4143 16.44L66.5343 17.856C66.0383 18.032 65.5263 18.12 64.9983 18.12ZM86.6538 0.191999V18H85.0218V15.504C84.5098 16.352 83.8298 17 82.9818 17.448C82.1498 17.896 81.2058 18.12 80.1498 18.12C78.9658 18.12 77.8938 17.848 76.9338 17.304C75.9738 16.76 75.2218 16 74.6778 15.024C74.1338 14.048 73.8618 12.936 73.8618 11.688C73.8618 10.44 74.1338 9.328 74.6778 8.352C75.2218 7.376 75.9738 6.624 76.9338 6.096C77.8938 5.552 78.9658 5.28 80.1498 5.28C81.1738 5.28 82.0938 5.496 82.9098 5.928C83.7418 6.344 84.4218 6.96 84.9498 7.776V0.191999H86.6538ZM80.2938 16.608C81.1738 16.608 81.9658 16.408 82.6698 16.008C83.3898 15.592 83.9498 15.008 84.3498 14.256C84.7658 13.504 84.9738 12.648 84.9738 11.688C84.9738 10.728 84.7658 9.872 84.3498 9.12C83.9498 8.368 83.3898 7.792 82.6698 7.392C81.9658 6.976 81.1738 6.768 80.2938 6.768C79.3978 6.768 78.5898 6.976 77.8698 7.392C77.1658 7.792 76.6058 8.368 76.1898 9.12C75.7898 9.872 75.5898 10.728 75.5898 11.688C75.5898 12.648 75.7898 13.504 76.1898 14.256C76.6058 15.008 77.1658 15.592 77.8698 16.008C78.5898 16.408 79.3978 16.608 80.2938 16.608ZM96.5594 18.12C95.3434 18.12 94.2474 17.848 93.2714 17.304C92.2954 16.744 91.5274 15.976 90.9674 15C90.4074 14.024 90.1274 12.92 90.1274 11.688C90.1274 10.456 90.4074 9.352 90.9674 8.376C91.5274 7.4 92.2954 6.64 93.2714 6.096C94.2474 5.552 95.3434 5.28 96.5594 5.28C97.7754 5.28 98.8714 5.552 99.8474 6.096C100.823 6.64 101.583 7.4 102.127 8.376C102.687 9.352 102.967 10.456 102.967 11.688C102.967 12.92 102.687 14.024 102.127 15C101.583 15.976 100.823 16.744 99.8474 17.304C98.8714 17.848 97.7754 18.12 96.5594 18.12ZM96.5594 16.608C97.4554 16.608 98.2554 16.408 98.9594 16.008C99.6794 15.592 100.239 15.008 100.639 14.256C101.039 13.504 101.239 12.648 101.239 11.688C101.239 10.728 101.039 9.872 100.639 9.12C100.239 8.368 99.6794 7.792 98.9594 7.392C98.2554 6.976 97.4554 6.768 96.5594 6.768C95.6634 6.768 94.8554 6.976 94.1354 7.392C93.4314 7.792 92.8714 8.368 92.4554 9.12C92.0554 9.872 91.8554 10.728 91.8554 11.688C91.8554 12.648 92.0554 13.504 92.4554 14.256C92.8714 15.008 93.4314 15.592 94.1354 16.008C94.8554 16.408 95.6634 16.608 96.5594 16.608ZM125.91 5.376V12.36C125.91 14.232 125.462 15.664 124.566 16.656C123.67 17.632 122.35 18.12 120.606 18.12C119.502 18.12 118.574 17.912 117.822 17.496C117.086 17.064 116.518 16.384 116.118 15.456C115.718 16.368 115.15 17.04 114.414 17.472C113.678 17.904 112.75 18.12 111.63 18.12C109.886 18.12 108.566 17.632 107.67 16.656C106.774 15.664 106.326 14.232 106.326 12.36V5.376H108.03V12.216C108.03 13.704 108.318 14.808 108.894 15.528C109.47 16.232 110.382 16.584 111.63 16.584C112.862 16.584 113.774 16.224 114.366 15.504C114.974 14.784 115.278 13.672 115.278 12.168V5.376H116.982V12.168C116.982 13.672 117.278 14.784 117.87 15.504C118.462 16.224 119.382 16.584 120.63 16.584C121.846 16.584 122.742 16.232 123.318 15.528C123.91 14.808 124.206 13.704 124.206 12.216V5.376H125.91ZM136.972 5.28C138.556 5.28 139.812 5.744 140.74 6.672C141.684 7.584 142.156 8.92 142.156 10.68V18H140.452V10.848C140.452 9.536 140.124 8.536 139.468 7.848C138.812 7.16 137.876 6.816 136.66 6.816C135.3 6.816 134.22 7.224 133.42 8.04C132.636 8.84 132.244 9.952 132.244 11.376V18H130.54V5.376H132.172V7.704C132.636 6.936 133.276 6.344 134.092 5.928C134.924 5.496 135.884 5.28 136.972 5.28Z" fill="black"/>
</svg>
