<svg width="716" height="488" viewBox="0 0 716 488" fill="none" xmlns="http://www.w3.org/2000/svg">
<g clip-path="url(#clip0)">
<path opacity="0.1" d="M50.6002 394.008C70.2895 394.008 86.2509 388.688 86.2509 382.126C86.2509 375.564 70.2895 370.244 50.6002 370.244C30.9109 370.244 14.9495 375.564 14.9495 382.126C14.9495 388.688 30.9109 394.008 50.6002 394.008Z" fill="black"/>
<path opacity="0.1" d="M626.541 443.131C646.23 443.131 662.191 437.812 662.191 431.25C662.191 424.687 646.23 419.368 626.541 419.368C606.851 419.368 590.89 424.687 590.89 431.25C590.89 437.812 606.851 443.131 626.541 443.131Z" fill="black"/>
<path opacity="0.1" d="M422.175 13.6863C367.923 33.3284 309.115 34.2418 254.49 15.7508C177.073 -10.4486 75.9676 -17.1544 38.5027 102.904C-25.4387 308.021 105.375 381.235 105.375 381.235C105.375 381.235 196.705 400.424 247.273 435.096C319.105 484.346 407.075 500.81 489.943 477.715C542.936 462.944 588.355 438.713 601.339 399.065C637.656 288.178 614.602 221.529 680.325 192.292C746.049 163.055 709.48 54.7453 662.738 52.2873C615.996 49.8292 505.875 74.9518 471.809 24.9814C459.664 7.24043 441.086 6.83199 422.175 13.6863Z" fill="#FFAA5A"/>
<path d="M625.099 432.935C625.099 432.935 634.606 402.607 623.308 380.284C618.497 370.95 617.046 360.404 619.173 350.231C620.223 345.407 621.742 340.684 623.712 336.121" stroke="#535461" stroke-width="2" stroke-miterlimit="10"/>
<path d="M616.677 322.019C616.677 325.732 623.855 336.515 623.855 336.515C623.855 336.515 631.033 325.739 631.033 322.019C631.033 320.233 630.276 318.521 628.929 317.259C627.582 315.996 625.756 315.287 623.851 315.287C621.946 315.287 620.12 315.996 618.773 317.259C617.426 318.521 616.669 320.233 616.669 322.019H616.677Z" fill="#91C499"/>
<path d="M604.81 342.611C606.964 345.73 619.244 351.122 619.244 351.122C619.244 351.122 619.022 338.416 616.867 335.297C616.355 334.555 615.692 333.915 614.916 333.414C614.139 332.912 613.266 332.559 612.344 332.374C611.422 332.19 610.47 332.177 609.543 332.337C608.616 332.497 607.732 332.826 606.941 333.306C606.149 333.787 605.467 334.408 604.932 335.136C604.397 335.864 604.02 336.683 603.823 337.547C603.626 338.411 603.612 339.303 603.783 340.172C603.954 341.041 604.305 341.87 604.817 342.611H604.81Z" fill="#91C499"/>
<path d="M605.325 377.789C608.866 379.46 622.365 378.309 622.365 378.309C622.365 378.309 615.33 367.444 611.789 365.773C610.089 364.97 608.119 364.832 606.31 365.391C604.502 365.949 603.005 367.158 602.148 368.751C601.29 370.345 601.144 372.192 601.739 373.887C602.335 375.582 603.625 376.985 605.325 377.789V377.789Z" fill="#91C499"/>
<path d="M612.114 404.33C615.283 406.558 628.814 407.538 628.814 407.538C628.814 407.538 623.839 395.716 620.654 393.51C619.124 392.448 617.206 392 615.323 392.264C613.439 392.528 611.745 393.482 610.613 394.917C609.48 396.352 609.002 398.15 609.284 399.915C609.565 401.68 610.583 403.268 612.114 404.33V404.33Z" fill="#91C499"/>
<path d="M634.312 351.842C631.468 354.434 618.214 357.115 618.214 357.115C618.214 357.115 621.462 344.78 624.306 342.188C625.672 340.944 627.509 340.26 629.413 340.286C631.317 340.312 633.132 341.045 634.459 342.326C635.786 343.606 636.516 345.328 636.488 347.112C636.461 348.897 635.678 350.598 634.312 351.842V351.842Z" fill="#91C499"/>
<path d="M641.831 382.965C638.289 384.636 624.79 383.485 624.79 383.485C624.79 383.485 631.825 372.62 635.366 370.987C637.066 370.183 639.037 370.045 640.845 370.604C642.653 371.162 644.15 372.371 645.008 373.964C645.865 375.558 646.012 377.405 645.416 379.1C644.82 380.795 643.531 382.199 641.831 383.002V382.965Z" fill="#91C499"/>
<path d="M644.707 414.162C641.538 416.39 628.006 417.37 628.006 417.37C628.006 417.37 632.982 405.548 636.166 403.342C637.697 402.281 639.615 401.832 641.498 402.096C643.381 402.36 645.075 403.315 646.208 404.749C647.34 406.184 647.819 407.982 647.537 409.747C647.255 411.512 646.237 413.1 644.707 414.162V414.162Z" fill="#91C499"/>
<path d="M50.616 382.215C50.616 382.215 70.9686 317.519 46.8133 269.843C36.6726 249.844 33.3453 227.403 37.9957 205.703C40.2376 195.412 43.4808 185.335 47.6847 175.598" stroke="#535461" stroke-width="2" stroke-miterlimit="10"/>
<path d="M32.656 145.485C32.656 153.416 47.9779 176.422 47.9779 176.422C47.9779 176.422 63.2918 153.401 63.2918 145.485C63.2918 141.676 61.6775 138.023 58.8041 135.33C55.9307 132.636 52.0336 131.123 47.9699 131.123C43.9063 131.123 40.0092 132.636 37.1358 135.33C34.2623 138.023 32.6481 141.676 32.6481 145.485H32.656Z" fill="#91C499"/>
<path d="M7.32819 189.425C11.9311 196.109 38.1304 207.59 38.1304 207.59C38.1304 207.59 37.655 180.47 33.0521 173.816C30.8004 170.716 27.3446 168.565 23.4232 167.822C19.5019 167.079 15.426 167.803 12.0667 169.839C8.70734 171.876 6.33104 175.063 5.4456 178.721C4.56016 182.378 5.23582 186.214 7.32819 189.411V189.425Z" fill="#91C499"/>
<path d="M8.42938 264.518C15.9873 268.09 44.801 265.625 44.801 265.625C44.801 265.625 29.7485 242.441 22.2301 238.891C20.4334 238.041 18.4758 237.532 16.469 237.392C14.4623 237.252 12.4457 237.483 10.5345 238.073C8.62324 238.664 6.85474 239.601 5.32997 240.832C3.80519 242.063 2.55401 243.563 1.64784 245.248C0.741666 246.932 0.198264 248.767 0.0486519 250.648C-0.10096 252.529 0.146152 254.419 0.775876 256.211C2.04766 259.829 4.80071 262.825 8.42938 264.541V264.518Z" fill="#91C499"/>
<path d="M22.8877 321.157C29.693 325.873 58.5384 328.004 58.5384 328.004C58.5384 328.004 47.9224 302.755 41.1092 298.062C37.8419 295.797 33.7486 294.842 29.7297 295.406C25.7108 295.97 22.0955 298.007 19.6792 301.07C17.2629 304.132 16.2434 307.969 16.8451 311.737C17.4469 315.504 19.6205 318.892 22.8877 321.157V321.157Z" fill="#91C499"/>
<path d="M70.3031 209.097C64.2346 214.622 35.9517 220.348 35.9517 220.348C35.9517 220.348 42.8759 194.015 48.9444 188.49C51.8597 185.831 55.7825 184.366 59.8497 184.419C63.9169 184.471 67.7953 186.036 70.6319 188.768C73.4684 191.501 75.0307 195.178 74.975 198.99C74.9192 202.803 73.2501 206.438 70.3348 209.097H70.3031Z" fill="#91C499"/>
<path d="M86.3459 275.568C78.788 279.14 49.9743 276.675 49.9743 276.675C49.9743 276.675 65.0268 253.491 72.5451 249.941C74.3419 249.091 76.2995 248.582 78.3062 248.442C80.313 248.302 82.3296 248.533 84.2408 249.124C86.1521 249.714 87.9206 250.651 89.4453 251.882C90.9701 253.113 92.2213 254.613 93.1275 256.298C94.0336 257.982 94.577 259.817 94.7266 261.698C94.8762 263.579 94.6291 265.469 93.9994 267.261C93.3697 269.052 92.3697 270.71 91.0565 272.139C89.7433 273.568 88.1426 274.741 86.3459 275.591V275.568Z" fill="#91C499"/>
<path d="M92.4858 342.151C85.6804 346.867 56.8351 348.998 56.8351 348.998C56.8351 348.998 67.4511 323.749 74.2643 319.056C77.5316 316.791 81.6249 315.835 85.6438 316.399C89.6627 316.963 93.278 319.001 95.6943 322.063C98.1106 325.126 99.13 328.963 98.5283 332.73C97.9266 336.497 95.753 339.886 92.4858 342.151V342.151Z" fill="#91C499"/>
<path d="M300.377 222.628L256.225 217.266C254.435 217.051 253.056 216.412 253.104 215.855C253.183 215.298 254.688 215.038 256.518 215.283L300.575 221.261C301.787 221.425 302.706 221.855 302.65 222.234C302.595 222.59 301.581 222.776 300.377 222.628Z" fill="#FFAA5A"/>
<path d="M300.654 223.333L256.368 219.041C254.569 218.87 253.04 219.182 252.985 219.739C252.93 220.296 254.364 220.883 256.154 221.031L300.519 224.744C301.739 224.848 302.738 224.625 302.777 224.247C302.809 223.846 301.866 223.452 300.654 223.333Z" fill="#FFAA5A"/>
<path d="M367.091 254.56L411.234 249.198C413.025 248.983 414.403 248.344 414.356 247.787C414.277 247.23 412.771 246.97 410.941 247.215L366.885 253.194C365.673 253.357 364.754 253.788 364.809 254.166C364.865 254.523 365.879 254.708 367.091 254.56Z" fill="#FFAA5A"/>
<path d="M366.806 255.265L411.092 250.973C412.89 250.802 414.419 251.114 414.475 251.671C414.53 252.228 413.096 252.815 411.306 252.963L366.94 256.676C365.72 256.78 364.722 256.558 364.682 256.179C364.651 255.778 365.594 255.384 366.806 255.265Z" fill="#FFAA5A"/>
<path d="M221.058 299.005H210.291V443.711H221.058V299.005Z" fill="#40414D"/>
<path d="M456.21 299.005H445.443V443.711H456.21V299.005Z" fill="#40414D"/>
<path d="M206.18 287.227H454.942C459.565 287.227 463.998 288.949 467.266 292.013C470.535 295.076 472.371 299.232 472.371 303.565V305.733H188.75V303.565C188.75 299.232 190.587 295.076 193.855 292.013C197.124 288.949 201.557 287.227 206.18 287.227V287.227Z" fill="#DFE6F5"/>
<path opacity="0.1" d="M205.387 287.227H454.15C458.772 287.227 463.205 288.949 466.474 292.013C469.743 295.076 471.579 299.232 471.579 303.565V305.733H187.958V303.565C187.958 299.232 189.795 295.076 193.063 292.013C196.332 288.949 200.765 287.227 205.387 287.227V287.227Z" fill="black"/>
<path d="M206.18 283.856H454.942C459.565 283.856 463.998 285.577 467.266 288.641C470.535 291.705 472.371 295.86 472.371 300.193V302.362H188.75V300.193C188.75 295.86 190.587 291.705 193.855 288.641C197.124 285.577 201.557 283.856 206.18 283.856Z" fill="#DFE6F5"/>
<path d="M330.561 272.078C342.458 272.078 352.102 263.038 352.102 251.887C352.102 240.735 342.458 231.695 330.561 231.695C318.664 231.695 309.02 240.735 309.02 251.887C309.02 263.038 318.664 272.078 330.561 272.078Z" fill="#FFD77C" stroke="#FFAB50" stroke-miterlimit="10"/>
<path d="M330.561 267.89C339.99 267.89 347.634 260.725 347.634 251.887C347.634 243.048 339.99 235.883 330.561 235.883C321.132 235.883 313.488 243.048 313.488 251.887C313.488 260.725 321.132 267.89 330.561 267.89Z" fill="#FFD77C" stroke="#FFAB50" stroke-miterlimit="10"/>
<path d="M330.561 264.08C337.745 264.08 343.569 258.621 343.569 251.887C343.569 245.152 337.745 239.693 330.561 239.693C323.376 239.693 317.552 245.152 317.552 251.887C317.552 258.621 323.376 264.08 330.561 264.08Z" fill="#FFD77C" stroke="#FFAB50" stroke-miterlimit="10"/>
<path d="M330.561 258.741C334.599 258.741 337.873 255.672 337.873 251.887C337.873 248.101 334.599 245.032 330.561 245.032C326.522 245.032 323.249 248.101 323.249 251.887C323.249 255.672 326.522 258.741 330.561 258.741Z" fill="#FFD77C" stroke="#FFAB50" stroke-miterlimit="10"/>
<path d="M317.996 283.017C329.893 283.017 339.537 273.977 339.537 262.825C339.537 251.674 329.893 242.634 317.996 242.634C306.099 242.634 296.455 251.674 296.455 262.825C296.455 273.977 306.099 283.017 317.996 283.017Z" fill="#FFD77C" stroke="#FFAB50" stroke-miterlimit="10"/>
<path d="M317.996 278.828C327.425 278.828 335.069 271.664 335.069 262.825C335.069 253.987 327.425 246.822 317.996 246.822C308.567 246.822 300.923 253.987 300.923 262.825C300.923 271.664 308.567 278.828 317.996 278.828Z" fill="#FFD77C" stroke="#FFAB50" stroke-miterlimit="10"/>
<path d="M317.996 275.019C325.18 275.019 331.005 269.56 331.005 262.825C331.005 256.091 325.18 250.631 317.996 250.631C310.812 250.631 304.987 256.091 304.987 262.825C304.987 269.56 310.812 275.019 317.996 275.019Z" fill="#FFD77C" stroke="#FFAB50" stroke-miterlimit="10"/>
<path d="M317.996 269.679C322.035 269.679 325.308 266.611 325.308 262.825C325.308 259.04 322.035 255.971 317.996 255.971C313.957 255.971 310.684 259.04 310.684 262.825C310.684 266.611 313.957 269.679 317.996 269.679Z" fill="#FFD77C" stroke="#FFAB50" stroke-miterlimit="10"/>
<path d="M343.126 283.017C355.022 283.017 364.667 273.977 364.667 262.825C364.667 251.674 355.022 242.634 343.126 242.634C331.229 242.634 321.585 251.674 321.585 262.825C321.585 273.977 331.229 283.017 343.126 283.017Z" fill="#FFD77C" stroke="#FFAB50" stroke-miterlimit="10"/>
<path d="M343.126 278.828C352.555 278.828 360.198 271.664 360.198 262.825C360.198 253.987 352.555 246.822 343.126 246.822C333.697 246.822 326.053 253.987 326.053 262.825C326.053 271.664 333.697 278.828 343.126 278.828Z" fill="#FFD77C" stroke="#FFAB50" stroke-miterlimit="10"/>
<path d="M343.126 275.019C350.31 275.019 356.134 269.56 356.134 262.825C356.134 256.091 350.31 250.631 343.126 250.631C335.941 250.631 330.117 256.091 330.117 262.825C330.117 269.56 335.941 275.019 343.126 275.019Z" fill="#FFD77C" stroke="#FFAB50" stroke-miterlimit="10"/>
<path d="M343.126 269.679C347.164 269.679 350.438 266.611 350.438 262.825C350.438 259.04 347.164 255.971 343.126 255.971C339.087 255.971 335.813 259.04 335.813 262.825C335.813 266.611 339.087 269.679 343.126 269.679Z" fill="#FFD77C" stroke="#FFAB50" stroke-miterlimit="10"/>
<path d="M285.681 256.944H375.433V260.894C375.433 264.795 374.614 268.658 373.021 272.262C371.428 275.866 369.094 279.14 366.152 281.899C363.209 284.657 359.715 286.845 355.871 288.338C352.026 289.831 347.905 290.599 343.744 290.599H317.37C313.209 290.599 309.088 289.831 305.243 288.338C301.398 286.845 297.905 284.657 294.962 281.899C292.02 279.14 289.685 275.866 288.093 272.262C286.5 268.658 285.681 264.795 285.681 260.894V256.944Z" fill="#FFAA5A"/>
<path opacity="0.1" d="M367.337 256.936C367.103 265.711 363.22 274.054 356.517 280.183C349.814 286.312 340.821 289.744 331.456 289.745H313.639C316.238 290.301 318.895 290.585 321.561 290.591H339.513C344.229 290.593 348.9 289.724 353.258 288.034C357.616 286.343 361.576 283.865 364.911 280.739C368.247 277.614 370.893 273.903 372.699 269.819C374.504 265.735 375.433 261.357 375.433 256.936H367.337Z" fill="black"/>
<path d="M450.83 419.308V409.216H217.469V419.308H450.83Z" fill="#40414D"/>
<path d="M129.974 373.972H120.555V454.308H129.974V373.972Z" fill="#40414D"/>
<path d="M204.373 373.972H194.954V454.308H204.373V373.972Z" fill="#40414D"/>
<path d="M211.915 360.731C211.915 366.093 192.521 370.445 168.596 370.445C144.67 370.445 126.219 366.1 126.219 360.731C126.219 355.362 144.67 351.018 168.596 351.018C192.521 351.018 211.915 355.392 211.915 360.731Z" fill="#FFB8A3"/>
<path d="M113.021 360.724H211.908V368.818C211.908 370.886 211.031 372.87 209.471 374.332C207.911 375.794 205.795 376.616 203.589 376.616H127.281C123.499 376.616 119.872 375.207 117.197 372.701C114.523 370.194 113.021 366.794 113.021 363.249V360.724Z" fill="#40414D"/>
<path d="M96.2277 267.838L98.2678 267.407C99.7025 267.103 101.207 267.346 102.451 268.082C103.694 268.819 104.575 269.988 104.898 271.333L129.596 373.891L126.505 374.545C123.91 375.094 121.189 374.655 118.94 373.323C116.691 371.992 115.098 369.877 114.513 367.445L92.0237 274.057C91.8631 273.39 91.8444 272.699 91.9689 272.026C92.0933 271.352 92.3584 270.707 92.7489 270.13C93.1395 269.552 93.6478 269.052 94.2447 268.659C94.8417 268.266 95.5155 267.987 96.2277 267.838Z" fill="#40414D"/>
<path d="M532.724 455.734H542.144V375.398H532.724V455.734Z" fill="#40414D"/>
<path d="M458.325 455.734H467.745V375.398H458.325V455.734Z" fill="#40414D"/>
<path d="M450.799 362.157C450.799 367.519 470.193 371.87 494.118 371.87C518.044 371.87 536.495 367.526 536.495 362.157C536.495 356.788 518.036 352.421 494.118 352.421C470.201 352.421 450.799 356.795 450.799 362.157Z" fill="#FFB8A3"/>
<path d="M535.418 378.049H459.109C456.903 378.049 454.787 377.227 453.227 375.765C451.667 374.303 450.791 372.319 450.791 370.251V362.157H549.678V364.682C549.678 368.227 548.175 371.627 545.501 374.134C542.827 376.641 539.2 378.049 535.418 378.049Z" fill="#40414D"/>
<path d="M536.208 375.971L533.117 375.317L557.817 272.743C558.141 271.399 559.022 270.229 560.265 269.493C561.509 268.757 563.013 268.514 564.448 268.817L566.488 269.249C567.923 269.553 569.17 270.378 569.956 271.544C570.741 272.709 571 274.119 570.676 275.464L548.184 368.867C547.599 371.296 546.009 373.409 543.764 374.741C541.518 376.073 538.801 376.515 536.208 375.971V375.971Z" fill="#40414D"/>
<path d="M539.561 330.886L542.342 330.061C542.342 330.061 537.588 300.297 537.636 273.623C537.636 272.88 537.636 272.086 537.636 271.321C537.691 269.657 537.755 268.009 537.842 266.397C537.953 264.333 537.976 262.365 537.961 260.456C538.222 234.769 527.424 223.92 527.424 223.92C527.424 223.92 514.748 206.973 507.15 203.676C506.493 201.745 505.74 199.265 505.075 196.384C505.32 196.228 505.558 196.072 505.788 195.908C508.926 193.727 511.928 191.379 514.78 188.876C518.678 185.452 522.417 181.279 522.211 176.571C522.232 176.112 522.216 175.653 522.163 175.197C521.442 169.516 515.144 165.239 512.601 159.855C510.462 155.332 511.104 150.297 509.234 145.708C507.364 141.119 500.836 136.849 495.909 139.262C494.094 140.153 493.001 141.728 491.488 142.923C487.733 145.894 481.68 146.168 476.546 144.817C471.413 143.465 469.892 137.955 462.714 137.94C463.351 138.141 463.96 138.412 464.528 138.75C463.929 138.655 463.322 138.605 462.714 138.601C464.174 139.034 465.469 139.854 466.442 140.963C467.415 142.071 468.024 143.42 468.196 144.846C468.185 145.026 468.164 145.204 468.133 145.381C465.265 146.829 461.494 146.005 458.056 145.953C454.617 145.901 450.704 147.527 451.044 150.164C450.986 150.463 450.986 150.77 451.044 151.07C451.496 153.067 454.348 154.575 454.696 156.424C454.696 156.476 454.696 156.52 454.696 156.572C448.334 159.553 441.45 161.434 434.376 162.127C434.146 162.127 434.249 162.387 434.582 162.766H434.376C433.084 162.892 442.116 169.583 443.146 170.021C446.917 171.625 451.425 172.806 455.417 174.039L455.766 174.143C454.421 177.072 453.728 180.228 453.73 183.418C453.73 194.854 462.5 204.463 474.376 207.181C476.594 209.61 478.923 212.276 481.046 214.927H480.896C480.896 214.927 467.245 231.947 467.681 257.367C467.642 260.553 467.822 263.738 468.22 266.902C459.442 266.434 440.579 264.266 426.231 254.419C406.877 241.148 385.289 245.129 389.788 253.09C394.288 261.05 417.335 267.682 421.05 268.35C421.399 268.41 422.207 268.588 423.363 268.855C418.784 269.665 415.647 271.083 415.837 272.992C416.21 276.638 435.936 288.252 447.844 288.913C455.711 289.351 465.178 291.624 472.649 293.621C473.369 308.882 469.432 313.457 469.432 313.457C469.432 313.457 470.605 314.132 472.546 315.09L471.714 317.318C466.881 319.932 460.923 322.657 455.505 323.757C448.599 325.086 441.887 327.18 435.508 329.994L408.707 342.136C406.314 343.177 404.243 344.773 402.69 346.773C401.138 348.772 400.155 351.11 399.834 353.565C399.248 358.711 400.904 365.142 409.872 370.244C410.426 374.425 413.152 379.304 420.305 383.774C434.17 392.418 470.605 418.313 475.564 421.848C475.659 428.168 474.772 440.844 466.453 442.819C456.027 445.3 464.417 454.701 472.847 454.33C474.847 455.039 477.024 455.189 479.113 454.761C488.05 452.77 520.801 442.136 523.035 426.23C523.128 425.54 523.17 424.845 523.162 424.15C523.291 421.438 522.57 418.751 521.086 416.42C521.435 417.138 521.719 417.884 521.934 418.647C519.224 412.855 512.625 409.216 507.491 407.167C507.491 407.115 507.491 407.055 507.491 407.003C506.699 406.714 505.907 406.476 505.257 406.261C505.27 405.83 505.236 405.4 505.154 404.976L453.793 371.803C453.793 371.803 476.126 354.553 499.204 357.211C522.282 359.87 525.958 355.941 525.958 355.941C525.958 355.941 537.794 345.389 538.983 333.24L539.727 333.054C539.727 333.054 539.672 332.289 539.561 330.886Z" fill="url(#paint0_linear)"/>
<path d="M476.84 417.289C476.84 417.289 478.939 438.951 468.434 441.579C457.929 444.208 467.737 454.709 476.134 452.719C484.532 450.728 515.358 440.243 517.458 424.499C519.557 408.756 496.447 403.491 496.447 403.491L476.84 417.289Z" fill="#B8616E"/>
<path opacity="0.05" d="M476.84 417.289C476.84 417.289 478.939 438.951 468.434 441.579C457.929 444.208 467.737 454.709 476.134 452.719C484.532 450.728 515.358 440.243 517.458 424.499C519.557 408.756 496.447 403.491 496.447 403.491L476.84 417.289Z" fill="black"/>
<path d="M481.062 417.942C481.062 417.942 483.162 439.604 472.656 442.233C462.151 444.862 471.959 455.362 480.357 453.372C488.755 451.382 519.581 440.896 521.68 425.153C523.78 409.409 500.67 404.144 500.67 404.144L481.062 417.942Z" fill="#B8616E"/>
<path opacity="0.1" d="M502.769 404.813L483.177 418.603C483.177 418.603 483.265 419.539 483.32 421.031C490.719 419.13 506.842 414.08 507.087 406.179C505.678 405.643 504.237 405.187 502.769 404.813V404.813Z" fill="black"/>
<path d="M490.514 216.063H482.108V221.974H490.514V216.063Z" fill="#F8BDC5"/>
<path d="M482.464 311.578C482.464 311.578 469.115 321.41 458.151 323.742C451.631 325.064 445.312 327.137 439.335 329.913L414.118 341.928C411.828 343.008 409.864 344.609 408.405 346.585C406.946 348.561 406.039 350.849 405.768 353.238C405.047 359.922 407.915 368.714 425.027 373.942L478.955 415.959L495.766 402.83L438.337 361.481L482.464 335.876V311.578Z" fill="#758AC8"/>
<path opacity="0.1" d="M482.464 311.578C482.464 311.578 469.115 321.41 458.151 323.742C451.631 325.064 445.312 327.137 439.335 329.913L414.118 341.928C411.828 343.008 409.864 344.609 408.405 346.585C406.946 348.561 406.039 350.849 405.768 353.238C405.047 359.922 407.915 368.714 425.027 373.942L478.955 415.959L495.766 402.83L438.337 361.481L482.464 335.876V311.578Z" fill="black"/>
<path d="M474.756 267.6C474.756 267.6 448.842 268.254 430.628 255.124C412.415 241.995 392.11 245.931 396.309 253.81C400.507 261.689 422.223 268.254 425.724 268.907C429.226 269.561 479.652 282.697 479.652 282.697L474.756 267.6Z" fill="#F8BDC5"/>
<path opacity="0.05" d="M474.756 267.6C474.756 267.6 448.842 268.254 430.628 255.124C412.415 241.995 392.11 245.931 396.309 253.81C400.507 261.689 422.223 268.254 425.724 268.907C429.226 269.561 479.652 282.697 479.652 282.697L474.756 267.6Z" fill="#FFB8A3"/>
<path d="M477.56 305.681L469.155 329.319C469.155 329.319 421.882 356.565 418.024 360.174C415.029 362.981 411.02 373.965 425.027 383.151C439.034 392.337 477.553 421.232 477.553 421.232C477.553 421.232 506.968 415.291 504.869 404.152L456.542 371.328C456.542 371.328 477.553 354.248 499.268 356.884C520.983 359.521 524.485 355.57 524.485 355.57C524.485 355.57 541.296 339.797 535.687 324.722C530.078 309.647 477.56 305.681 477.56 305.681Z" fill="#758AC8"/>
<path d="M467.055 198.701C467.055 198.701 490.87 222.992 489.468 230.21C488.066 237.428 508.378 209.201 508.378 209.201C508.378 209.201 502.041 194.757 503.475 178.999L467.055 198.701Z" fill="#FFB8A3"/>
<path opacity="0.1" d="M487.836 220.979C489.46 219.371 491.171 217.842 492.962 216.397C496.545 213.642 499.833 210.566 502.777 207.211C507.681 201.27 525.887 226.905 525.887 226.905C525.887 226.905 537.089 238.72 535.695 266.954C534.3 295.188 537.446 332.935 537.446 332.935L533.207 334.042C529.637 335.158 525.839 335.481 522.113 334.985C518.386 334.489 514.835 333.187 511.738 331.183C506.144 327.559 499.062 323.757 493.675 323.415C483.169 322.761 473.71 317.177 473.71 317.177C473.71 317.177 478.266 307.003 471.262 274.172C464.259 241.341 482.108 218.009 482.108 218.009C482.108 218.009 483.518 225.152 487.836 220.979Z" fill="black"/>
<path d="M539.894 329.972L535.695 331.287L533.199 332.066C529.629 333.184 525.831 333.507 522.105 333.011C518.378 332.515 514.826 331.212 511.73 329.207C506.144 325.591 499.054 321.781 493.667 321.44C483.177 320.779 471.294 313.561 471.294 313.561C471.294 313.561 478.297 305.028 471.294 272.197C464.29 239.366 482.148 216.063 482.148 216.063C482.148 216.063 483.558 223.17 487.875 218.989C489.497 217.383 491.205 215.856 492.993 214.414C496.577 211.66 499.865 208.583 502.809 205.228C507.713 199.287 525.919 224.922 525.919 224.922C525.919 224.922 537.121 236.737 535.727 264.971C535.576 267.942 535.513 271.001 535.505 274.098C535.402 300.52 539.894 329.972 539.894 329.972Z" fill="#FFAB50"/>
<path opacity="0.1" d="M499.973 265.632L500.67 280.076C500.67 280.076 463.546 282.044 455.845 274.826C448.145 267.608 476.839 296.057 483.177 297.802C489.127 299.443 504.489 300.891 512.546 301.04C514.847 301.109 517.121 300.551 519.09 299.431C521.059 298.312 522.639 296.68 523.637 294.735C524.576 292.821 524.88 290.687 524.508 288.609C523.106 280.076 524.508 261.689 524.508 261.689L499.973 265.632Z" fill="black"/>
<path d="M499.973 264.318L500.67 278.762C500.67 278.762 463.546 280.73 455.845 273.511C448.145 266.293 420.282 267.89 420.828 273.511C421.177 277.121 439.739 288.609 450.933 289.27C462.128 289.931 476.84 294.743 483.177 296.488C489.127 298.129 504.489 299.577 512.546 299.726C514.847 299.795 517.121 299.236 519.09 298.117C521.059 296.998 522.639 295.366 523.637 293.421C524.576 291.507 524.88 289.372 524.508 287.294C523.106 278.762 524.508 260.375 524.508 260.375L499.973 264.318Z" fill="#FFB8A3"/>
<path opacity="0.1" d="M508.378 222.301C508.378 222.301 492.272 224.269 494.372 246.592C496.471 268.915 499.276 270.883 499.276 270.883C499.276 270.883 523.09 268.915 525.887 268.254C528.683 267.593 527.289 243.309 527.289 243.309C527.289 243.309 526.584 221.647 508.378 222.301Z" fill="black"/>
<path d="M508.378 221.647C508.378 221.647 492.272 223.615 494.372 245.938C496.471 268.261 499.276 270.229 499.276 270.229C499.276 270.229 523.09 268.261 525.887 267.6C528.683 266.939 527.289 242.656 527.289 242.656C527.289 242.656 526.584 220.979 508.378 221.647Z" fill="#FFAB50"/>
<path opacity="0.1" d="M502.421 193.086C501.32 187.888 503.577 186.284 504.172 179.63L467.729 199.324C467.729 199.324 471.904 203.587 476.649 209.06C478.77 209.563 480.95 209.812 483.138 209.803C492.684 209.84 497.905 200.23 502.421 193.086Z" fill="black"/>
<path d="M482.456 209.172C496.768 209.172 508.371 198.296 508.371 184.881C508.371 171.465 496.768 160.59 482.456 160.59C468.144 160.59 456.542 171.465 456.542 184.881C456.542 198.296 468.144 209.172 482.456 209.172Z" fill="#FFB8A3"/>
<path opacity="0.1" d="M488.992 177.507C485.031 179.868 484.976 185.207 487.527 188.906C490.078 192.604 494.475 195.047 498.705 197.349C499.933 198.017 501.288 198.708 502.666 198.56C503.726 198.366 504.708 197.901 505.503 197.215C508.463 195.05 511.288 192.727 513.964 190.257C517.814 186.708 521.514 182.334 520.912 177.38C520.23 171.759 514.304 167.526 511.912 162.201C509.9 157.746 510.502 152.748 508.743 148.196C506.984 143.643 500.821 139.433 496.21 141.817C494.506 142.693 493.477 144.26 492.05 145.441C488.517 148.366 482.821 148.656 477.988 147.319C473.156 145.983 471.722 140.524 464.98 140.51C468.331 141.616 470.597 144.891 470.082 147.876C467.38 149.31 463.831 148.493 460.575 148.441C457.319 148.389 453.445 150.097 454.007 152.844C454.498 155.072 457.929 156.728 457.422 158.956C451.471 161.895 444.983 163.759 438.297 164.451C437.085 164.578 445.578 171.194 446.544 171.632C450.086 173.222 454.34 174.388 458.087 175.605C468.268 178.895 478.693 180.069 488.992 177.507Z" fill="black"/>
<path d="M488.992 176.846C485.031 179.207 484.976 184.546 487.527 188.245C490.078 191.943 494.475 194.386 498.705 196.688C499.933 197.357 501.288 198.047 502.666 197.899C503.726 197.705 504.708 197.24 505.503 196.555C508.463 194.389 511.288 192.066 513.964 189.596C517.814 186.047 521.514 181.673 520.912 176.719C520.23 171.098 514.304 166.865 511.912 161.54C509.9 157.085 510.502 152.087 508.743 147.535C506.984 142.982 500.821 138.772 496.21 141.156C494.506 142.032 493.477 143.599 492.05 144.78C488.517 147.705 482.821 147.995 477.988 146.658C473.156 145.322 471.722 139.863 464.98 139.849C468.331 140.955 470.597 144.23 470.082 147.215C467.38 148.649 463.831 147.832 460.575 147.78C457.319 147.728 453.445 149.436 454.007 152.183C454.498 154.411 457.929 156.067 457.422 158.295C451.471 161.234 444.983 163.098 438.297 163.79C437.085 163.917 445.578 170.533 446.544 170.972C450.086 172.561 454.34 173.727 458.087 174.945C468.268 178.242 478.693 179.393 488.992 176.846Z" fill="#916168"/>
<path opacity="0.1" d="M519.85 415.462C520.975 417.893 521.367 420.567 520.983 423.192C518.884 438.95 488.066 449.451 479.66 451.411C475.231 452.451 470.407 450.023 468.386 447.104C469.686 450.535 475.279 453.914 480.365 452.726C488.771 450.758 519.589 440.25 521.688 424.507C522.147 421.384 521.501 418.207 519.85 415.462Z" fill="white"/>
<path d="M297.271 433.366C296.645 432.044 293.397 429.467 277.734 428.91C267.008 428.532 263.355 423.222 262.365 418.038C265.891 417.608 268.648 417.014 269.551 416.189C269.551 416.189 269.503 415.952 269.424 415.528L269.551 415.439C268.866 411.7 268.508 407.915 268.481 404.122C268.461 400.876 268.827 397.638 269.574 394.468C270.011 392.372 270.194 390.238 270.121 388.104C270.208 375.479 265.479 353.29 265.479 353.29L264.829 334.851C264.764 332.55 264.038 330.309 262.729 328.362C261.42 326.415 259.576 324.834 257.39 323.786C255.834 323.031 254.111 322.63 252.359 322.613C252.359 322.613 227.53 318.944 205.181 316.947C203.597 315.751 198.012 312.528 185.209 314.377L177.841 294.163C177.782 293.919 177.739 293.671 177.715 293.421C177.976 290.851 179.806 286.982 188.338 286.737L190.121 288.222C190.121 288.222 190.438 287.636 190.969 286.737C201.553 286.626 259.212 286.076 262.183 286.737C265.455 287.48 294.118 281.494 294.942 280.752C306.081 270.571 262.183 275.509 262.183 275.509C257.865 276.17 243.914 275.383 229.622 274.291C236.697 264.348 243.351 230.596 243.351 230.596C243.351 230.596 268.703 218.617 261.367 211.882C254.031 205.146 231.888 226.853 231.888 226.853C231.888 226.853 222.88 251.56 218.784 259.045C217.2 262.016 215.148 262.625 213.318 262.283C214.15 261.659 214.688 261.288 214.688 261.288C214.688 261.288 196.673 247.81 195.033 242.574C194.727 241.716 194.324 240.892 193.829 240.116C192.965 235.371 191.452 230.7 187.76 227.588C187.14 226.964 186.455 226.4 185.716 225.903C184.718 225.234 183.585 224.655 182.642 223.927C183.173 221.64 183.791 219.264 184.433 216.961C197.806 215.476 208.2 205.08 208.2 192.455C208.198 190.551 207.956 188.655 207.479 186.804C209.478 186.927 211.476 186.564 213.281 185.75C215.085 184.935 216.635 183.697 217.778 182.155C220.48 178.383 220.392 173.244 218.127 169.263C217.19 167.647 215.962 166.195 214.498 164.971C212.164 162.767 209.316 161.1 206.18 160.1C203.462 159.216 200.46 158.689 198.305 156.958C197.342 155.778 196.466 154.537 195.683 153.245C194.778 151.977 193.714 150.815 192.514 149.785C188.552 145.96 182.959 143.606 177.263 142.567C170.323 141.297 163.153 141.75 156.094 142.203C153.456 142.374 150.359 142.812 149.17 144.965C148.275 146.584 148.861 148.522 148.742 150.327C148.37 156.067 141.367 159.238 135.274 160.627C129.182 162.016 121.917 163.219 118.978 168.254C116.308 172.798 118.186 178.309 119.042 183.41C120.467 192.368 118.345 201.505 113.076 209.097C110.398 212.936 106.944 216.353 104.829 220.474C102.485 225.069 101.941 230.289 103.292 235.222C103.688 236.663 104.258 238.133 103.973 239.604C103.649 240.816 103.012 241.936 102.119 242.864C98.4764 247.08 93.9426 250.546 88.8027 253.041C83.6629 255.537 78.028 257.01 72.252 257.367C72.7371 258.875 73.6849 260.215 74.9773 261.221C76.6192 262.743 78.5339 263.982 80.6339 264.882C86.1662 267.483 91.9837 269.512 97.9839 270.934C102.024 271.892 106.247 272.576 110.359 271.922C114.47 271.269 118.479 269.063 120.167 265.573C121.149 263.553 121.291 261.266 122.163 259.209C123.898 255.095 128.2 252.429 131.107 248.901C130.128 257.991 129.665 267.123 129.721 276.259C129.721 279.118 129.721 281.695 129.721 284.086C129.721 294.401 128.929 301.515 122.107 314.4C121.295 315.754 120.938 317.307 121.086 318.855C120.937 319.691 121.024 320.55 121.336 321.345C121.649 322.141 122.177 322.846 122.868 323.393C122.393 325.962 122.162 328.567 122.179 331.175C122.084 340.562 125.467 353.164 143.403 356.357L175.338 354.872C175.338 354.872 220.377 346.636 232.656 352.644C233.67 352.846 234.579 353.368 235.232 354.122C235.885 354.876 236.242 355.817 236.245 356.788C236.207 357.412 236.104 358.032 235.936 358.637C235.594 360.582 235.464 362.556 235.548 364.526C235.492 377.15 238.392 405.8 238.392 405.8V417.949C236.348 420.831 233.829 425.093 234.154 428.235C234.154 428.301 234.154 428.376 234.154 428.442C234.154 428.509 234.154 428.628 234.201 428.717C234.249 428.806 234.201 428.881 234.257 428.962C234.312 429.044 234.304 429.118 234.328 429.2C234.352 429.282 234.391 429.378 234.431 429.46C234.47 429.542 234.486 429.594 234.518 429.66C234.55 429.727 234.621 429.853 234.676 429.943L234.771 430.098C234.867 430.241 234.973 430.378 235.088 430.507C239.184 434.963 259.648 443.584 266.207 443.235C273.171 442.864 296.503 443.978 297.326 434.25C297.431 433.96 297.411 433.643 297.271 433.366V433.366Z" fill="url(#paint1_linear)"/>
<path d="M239.057 414.563C239.057 414.563 229.551 425.702 233.512 430.158C237.473 434.614 257.279 443.131 263.617 442.782C270.351 442.411 292.93 443.525 293.722 433.871C293.722 433.871 295.306 429.415 274.708 428.673C254.11 427.93 260.448 407.88 260.448 407.88L239.057 414.563Z" fill="#535461"/>
<path opacity="0.1" d="M125.768 320.994C125.768 320.994 116.261 351.441 144.781 356.639L175.679 355.154C175.679 355.154 219.252 346.985 231.135 352.926C231.135 352.926 235.889 353.669 234.304 359.61C232.72 365.551 236.681 405.652 236.681 405.652V419.019C236.681 419.019 263.617 419.019 266.786 416.048C266.786 416.048 264.409 404.167 266.786 394.513C269.162 384.859 262.825 354.412 262.825 354.412L262.199 336.084C262.152 333.819 261.463 331.607 260.201 329.675C258.94 327.744 257.152 326.162 255.021 325.093C253.522 324.348 251.854 323.951 250.157 323.935C250.157 323.935 196.285 315.766 177.271 317.251C158.257 318.736 125.768 320.994 125.768 320.994Z" fill="black"/>
<path d="M125.768 320.251C125.768 320.251 116.261 350.698 144.781 355.897L175.679 354.412C175.679 354.412 219.252 346.243 231.135 352.184C231.135 352.184 235.889 352.926 234.304 358.867C232.72 364.808 236.681 404.909 236.681 404.909V418.276C236.681 418.276 263.617 418.276 266.786 415.306C266.786 415.306 264.409 403.424 266.786 393.77C269.162 384.116 262.825 353.669 262.825 353.669L262.199 335.341C262.152 333.077 261.463 330.865 260.201 328.933C258.94 327.001 257.152 325.419 255.021 324.351C253.522 323.606 251.854 323.208 250.157 323.192C250.157 323.192 196.285 315.023 177.271 316.509C158.257 317.994 125.768 320.251 125.768 320.251Z" fill="#FFD77C"/>
<path d="M207.368 260.1C207.368 260.1 213.706 267.526 217.667 260.1C221.628 252.674 230.343 228.167 230.343 228.167C230.343 228.167 251.733 206.632 258.863 213.315C265.994 219.999 241.434 231.88 241.434 231.88C241.434 231.88 232.72 277.18 224.797 277.922C216.875 278.665 204.991 277.922 204.991 277.922L201.03 269.754L207.368 260.1Z" fill="#F8BDC5"/>
<path opacity="0.05" d="M207.368 260.1C207.368 260.1 213.706 267.526 217.667 260.1C221.628 252.674 230.343 228.167 230.343 228.167C230.343 228.167 251.733 206.632 258.863 213.315C265.994 219.999 241.434 231.88 241.434 231.88C241.434 231.88 232.72 277.18 224.797 277.922C216.875 278.665 204.991 277.922 204.991 277.922L201.03 269.754L207.368 260.1Z" fill="#FFB8A3"/>
<path d="M178.847 222.969C178.847 222.969 193.108 238.564 194.692 243.762C196.277 248.961 213.706 262.328 213.706 262.328C213.706 262.328 201.03 271.239 203.407 275.695C205.784 280.15 186.77 260.842 186.77 260.842L164.587 230.395L178.847 222.969Z" fill="#EB6475"/>
<path opacity="0.1" d="M178.847 222.969C178.847 222.969 193.108 238.564 194.692 243.762C196.277 248.961 213.706 262.328 213.706 262.328C213.706 262.328 201.03 271.239 203.407 275.695C205.784 280.15 186.77 260.842 186.77 260.842L164.587 230.395L178.847 222.969Z" fill="black"/>
<path d="M188.354 205.147C188.354 205.147 181.224 226.682 181.224 234.851C181.224 243.02 151.119 232.623 151.911 228.168C152.704 223.712 169.341 207.374 170.133 200.691C170.925 194.007 188.354 205.147 188.354 205.147Z" fill="#F8BDC5"/>
<path opacity="0.1" d="M164.587 219.999C164.587 219.999 136.859 213.315 132.898 251.188C128.937 289.062 136.067 293.517 124.183 316.538C112.3 339.559 204.991 319.509 204.991 319.509C204.991 319.509 200.238 314.311 185.185 316.538L178.055 296.488C178.055 296.488 175.679 287.576 189.147 287.576C202.615 287.576 196.277 261.585 196.277 261.585C196.277 261.585 189.147 239.307 185.185 237.079C181.224 234.851 174.094 221.484 164.587 219.999Z" fill="black"/>
<path d="M164.587 218.514C164.587 218.514 136.859 211.83 132.898 249.703C128.937 287.576 136.067 292.032 124.183 315.053C112.3 338.074 204.991 318.024 204.991 318.024C204.991 318.024 200.238 312.825 185.185 315.053L178.055 295.003C178.055 295.003 175.679 286.091 189.147 286.091C202.615 286.091 196.277 260.1 196.277 260.1C196.277 260.1 189.147 237.821 185.185 235.594C181.224 233.366 174.094 219.999 164.587 218.514Z" fill="#EB6475"/>
<path d="M192.316 271.982C192.316 271.982 250.149 277.923 259.656 276.437C259.656 276.437 302.12 271.536 291.345 281.636C290.553 282.378 262.825 288.319 259.656 287.576C256.487 286.834 189.147 287.576 189.147 287.576L188.354 280.15L192.316 271.982Z" fill="#FFB8A3"/>
<path opacity="0.1" d="M147.95 253.416L189.939 289.062C189.939 289.062 197.861 274.209 200.238 274.209C202.615 274.209 171.717 230.395 171.717 230.395C171.717 230.395 163.795 221.484 159.042 225.94C154.288 230.395 140.028 227.425 147.95 253.416Z" fill="black"/>
<path d="M147.158 251.931L189.147 287.576C189.147 287.576 197.069 272.724 199.446 272.724C201.822 272.724 170.925 228.91 170.925 228.91C170.925 228.91 163.003 219.999 158.249 224.454C153.496 228.91 139.236 225.94 147.158 251.931Z" fill="#EB6475"/>
<path d="M181.224 218.514C195.663 218.514 207.368 207.542 207.368 194.007C207.368 180.473 195.663 169.501 181.224 169.501C166.785 169.501 155.08 180.473 155.08 194.007C155.08 207.542 166.785 218.514 181.224 218.514Z" fill="#FFB8A3"/>
<path opacity="0.1" d="M204.12 187.851C208.556 189.492 213.991 187.524 216.605 183.789C219.22 180.054 219.141 174.967 216.938 171.001C214.736 167.036 210.664 164.154 206.172 162.654C203.446 161.748 200.412 161.228 198.321 159.357C196.998 158.176 196.213 156.58 195.223 155.139C191.523 149.733 184.924 146.54 178.214 145.285C171.503 144.03 164.563 144.475 157.734 144.921C155.183 145.092 152.189 145.522 151.032 147.661C150.169 149.265 150.731 151.188 150.62 152.978C150.264 158.674 143.49 161.83 137.572 163.196C131.654 164.563 124.793 165.848 121.909 170.868C119.327 175.375 121.173 180.841 121.973 185.905C123.341 194.752 121.296 203.766 116.205 211.325C113.615 215.135 110.279 218.521 108.227 222.613C105.958 227.185 105.432 232.35 106.738 237.242C107.126 238.675 107.673 240.131 107.404 241.587C107.093 242.783 106.479 243.891 105.613 244.817C102.141 248.981 97.7755 252.416 92.7987 254.901C87.8219 257.385 82.3444 258.862 76.7202 259.238C77.6234 262.424 80.9112 264.437 84.0405 265.922C89.3803 268.496 95.0078 270.509 100.82 271.922C104.726 272.873 108.814 273.549 112.791 272.902C116.768 272.256 120.642 270.066 122.298 266.605C123.248 264.6 123.391 262.335 124.231 260.285C126.124 255.689 131.171 252.911 133.88 248.686C136.471 244.646 137.477 244.171 138.134 239.507C138.792 234.844 140.242 229.809 144.33 227.068C148.608 224.195 154.629 224.744 159.382 226.95C164.136 229.155 167.075 228.294 171.044 231.532C178.007 237.201 185.8 241.908 194.185 245.508C193.393 239.032 192.117 231.806 186.508 227.952C184.924 226.846 182.92 225.999 182.08 224.306C180.741 221.61 183.03 218.321 181.993 215.506C180.955 212.692 177.009 211.652 175.259 209.097C173.769 206.929 174.173 203.981 175.568 201.753C176.962 199.525 179.164 197.876 181.359 196.317C183.308 194.936 185.283 193.587 187.285 192.27C189.094 191.194 190.718 189.867 192.102 188.334C192.894 187.316 193.417 185.089 194.518 184.368C197.291 182.571 201.553 186.908 204.12 187.851Z" fill="black"/>
<path d="M203.328 187.108C207.764 188.75 213.199 186.782 215.813 183.046C218.428 179.311 218.348 174.224 216.146 170.259C213.944 166.293 209.872 163.412 205.38 161.912C202.654 161.006 199.62 160.486 197.528 158.614C196.205 157.434 195.421 155.837 194.431 154.396C190.731 148.99 184.132 145.797 177.421 144.542C170.711 143.287 163.771 143.732 156.942 144.178C154.391 144.349 151.396 144.78 150.24 146.918C149.376 148.522 149.939 150.446 149.828 152.235C149.471 157.931 142.698 161.087 136.78 162.454C130.862 163.82 124.001 165.105 121.117 170.125C118.534 174.633 120.38 180.098 121.181 185.163C122.549 194.009 120.504 203.023 115.413 210.582C112.822 214.392 109.487 217.778 107.435 221.87C105.165 226.443 104.64 231.607 105.946 236.5C106.334 237.933 106.881 239.388 106.611 240.844C106.301 242.04 105.687 243.148 104.821 244.074C101.349 248.239 96.9833 251.674 92.0065 254.158C87.0296 256.642 81.5521 258.12 75.928 258.496C76.8311 261.682 80.1189 263.694 83.2483 265.179C88.5881 267.754 94.2155 269.766 100.028 271.18C103.934 272.13 108.022 272.806 111.999 272.16C115.976 271.514 119.85 269.323 121.505 265.863C122.456 263.857 122.599 261.592 123.438 259.543C125.332 254.946 130.378 252.169 133.088 247.943C135.679 243.903 136.685 243.428 137.342 238.765C138 234.101 139.45 229.066 143.537 226.326C147.816 223.452 153.837 224.001 158.59 226.207C163.343 228.413 166.283 227.551 170.252 230.789C177.215 236.459 185.007 241.165 193.393 244.765C192.601 238.289 191.325 231.064 185.716 227.21C184.132 226.103 182.127 225.256 181.288 223.563C179.949 220.868 182.238 217.578 181.2 214.763C180.163 211.949 176.217 210.909 174.466 208.355C172.977 206.186 173.381 203.238 174.775 201.01C176.17 198.782 178.372 197.134 180.567 195.574C182.516 194.193 184.491 192.844 186.493 191.527C188.301 190.451 189.925 189.124 191.309 187.591C192.102 186.574 192.625 184.346 193.726 183.626C196.499 181.829 200.761 186.165 203.328 187.108Z" fill="#916168"/>
<g opacity="0.1">
<path opacity="0.1" d="M259.545 413.731C259.604 411.755 259.907 409.791 260.448 407.88L260.052 408.006C259.656 409.891 259.486 411.811 259.545 413.731V413.731Z" fill="white"/>
<path opacity="0.1" d="M263.617 441.297C257.279 441.646 237.473 433.128 233.512 428.673C232.992 428.069 232.672 427.336 232.593 426.564C232.477 427.19 232.498 427.832 232.656 428.45C232.814 429.068 233.105 429.649 233.512 430.158C237.473 434.614 257.279 443.131 263.617 442.782C270.351 442.411 292.93 443.525 293.722 433.871C293.781 433.604 293.742 433.327 293.611 433.084C291.797 441.98 270.185 440.933 263.617 441.297Z" fill="white"/>
</g>
<path d="M295.702 219.627H294.91V250.074H295.702V219.627Z" fill="#FFD77C" stroke="#FFAB50" stroke-width="0.25" stroke-miterlimit="10"/>
<path d="M296.495 219.627H295.702V250.074H296.495V219.627Z" fill="#FFD77C" stroke="#FFAB50" stroke-width="0.25" stroke-miterlimit="10"/>
<path d="M297.287 219.627H296.495V250.074H297.287V219.627Z" fill="#FFD77C" stroke="#FFAB50" stroke-width="0.25" stroke-miterlimit="10"/>
<path d="M298.079 219.627H297.287V250.074H298.079V219.627Z" fill="#FFD77C" stroke="#FFAB50" stroke-width="0.25" stroke-miterlimit="10"/>
<path d="M298.871 219.627H298.079V250.074H298.871V219.627Z" fill="#FFD77C" stroke="#FFAB50" stroke-width="0.25" stroke-miterlimit="10"/>
<path d="M299.664 219.627H298.871V250.074H299.664V219.627Z" fill="#FFD77C" stroke="#FFAB50" stroke-width="0.25" stroke-miterlimit="10"/>
<path d="M300.456 219.627H299.664V250.074H300.456V219.627Z" fill="#FFD77C" stroke="#FFAB50" stroke-width="0.25" stroke-miterlimit="10"/>
</g>
<defs>
<linearGradient id="paint0_linear" x1="465.748" y1="455.035" x2="465.748" y2="137.94" gradientUnits="userSpaceOnUse">
<stop stop-color="#808080" stop-opacity="0.25"/>
<stop offset="0.54" stop-color="#808080" stop-opacity="0.12"/>
<stop offset="1" stop-color="#808080" stop-opacity="0.1"/>
</linearGradient>
<linearGradient id="paint1_linear" x1="85945.4" y1="216678" x2="85945.4" y2="94266.3" gradientUnits="userSpaceOnUse">
<stop stop-color="#808080" stop-opacity="0.25"/>
<stop offset="0.54" stop-color="#808080" stop-opacity="0.12"/>
<stop offset="1" stop-color="#808080" stop-opacity="0.1"/>
</linearGradient>
<clipPath id="clip0">
<rect width="716" height="488" fill="white"/>
</clipPath>
</defs>
</svg>
