<svg width="613" height="539" viewBox="0 0 613 539" fill="none" xmlns="http://www.w3.org/2000/svg">
<g clip-path="url(#clip0)">
<path opacity="0.1" d="M229.684 396.968C281.508 379.701 337.684 378.898 389.864 395.154C463.816 418.185 560.396 424.08 596.184 318.538C657.264 138.221 532.304 73.8589 532.304 73.8589C532.304 73.8589 445.063 56.9899 396.758 26.5095C328.141 -16.7859 244.108 -31.259 164.949 -10.9562C114.328 2.02854 70.9423 23.3302 58.5387 58.1846C23.848 155.665 45.8702 214.256 -16.9121 239.957C-79.6944 265.659 -44.7615 360.874 -0.11162 363.035C44.5383 365.195 149.73 343.11 182.272 387.039C193.873 402.635 211.62 402.994 229.684 396.968Z" fill="#FFB8A3"/>
<path d="M409.907 233.076L403.434 246.681L363.734 294.101C363.734 294.101 336.548 320.533 351.651 322.087C366.755 323.642 376.68 297.6 376.68 297.6L423.284 256.009L428.462 236.963L409.907 233.076Z" fill="#9F616A"/>
<path d="M429.757 177.882L423.502 179.459C423.502 179.459 395.414 246.668 398.004 254.83C400.593 262.993 412.244 273.099 417.422 272.322C422.6 271.544 429.757 177.882 429.757 177.882Z" fill="#FFAA5A"/>
<path d="M517.158 523.27C517.158 523.27 514.411 535.669 522.667 530.706C530.923 525.744 535.227 516.148 535.227 516.148L517.158 523.27Z" fill="#2F2E41"/>
<path d="M419.4 243.571C419.4 243.571 331.801 521.876 362.871 530.039C393.94 538.201 439.682 529.261 439.25 523.82C438.819 518.378 431.051 410.71 431.051 410.71C431.051 410.71 476.361 553.749 532.459 520.321C588.557 486.894 576.043 480.675 570.865 478.342C565.686 476.01 487.581 365.232 488.012 344.632C488.444 324.031 487.149 259.508 477.656 249.79L419.4 243.571Z" fill="#2F2E41"/>
<path d="M475.04 144.622C471.669 141.876 469.567 138.09 469.15 134.014C468.733 129.937 470.031 125.869 472.788 122.614C472.423 122.922 472.067 123.242 471.725 123.582C468.505 126.795 466.833 131.027 467.076 135.349C467.32 139.671 469.458 143.73 473.022 146.632C476.586 149.535 481.283 151.044 486.082 150.828C490.881 150.612 495.388 148.688 498.612 145.48C498.954 145.14 499.272 144.788 499.575 144.43C496.257 147.227 491.894 148.8 487.349 148.835C482.805 148.871 478.411 147.367 475.04 144.622V144.622Z" fill="#2F2E41"/>
<path d="M473.341 148.535C493.956 148.535 510.667 133.482 510.667 114.913C510.667 96.3444 493.956 81.2912 473.341 81.2912C452.726 81.2912 436.014 96.3444 436.014 114.913C436.014 133.482 452.726 148.535 473.341 148.535Z" fill="#2F2E41"/>
<path d="M372.796 528.873C372.796 528.873 362.871 537.813 372.796 537.813C382.721 537.813 392.214 531.982 392.214 531.982L372.796 528.873Z" fill="#2F2E41"/>
<path d="M449.607 135.903C449.607 135.903 456.08 160.002 451.333 164.666C446.586 169.33 436.23 172.829 436.23 172.829L437.956 216.363C437.956 216.363 457.806 210.143 458.669 209.366C459.532 208.589 477.224 183.324 477.224 183.324L494.485 168.553C494.485 168.553 468.162 157.281 475.93 137.846C483.697 118.412 449.607 135.903 449.607 135.903Z" fill="#9F616A"/>
<path d="M487.723 127.868C489.708 116.85 481.4 106.468 469.168 104.68C456.935 102.891 445.409 110.374 443.424 121.393C441.439 132.412 449.746 142.794 461.979 144.582C474.212 146.37 485.738 138.887 487.723 127.868Z" fill="#9F616A"/>
<path d="M477.656 249.79C477.656 249.79 487.581 220.249 492.328 216.363C497.074 212.476 508.725 175.938 508.725 175.938C508.725 175.938 501.39 166.998 495.348 166.998C489.307 166.998 483.697 168.942 476.793 174.772C473.541 177.518 467.611 180.539 462.246 182.967C460.342 183.843 458.263 184.369 456.131 184.514C453.999 184.658 451.856 184.419 449.828 183.809C447.8 183.199 445.927 182.231 444.318 180.962C442.71 179.693 441.398 178.148 440.46 176.417C439.388 174.364 439.035 172.397 440.113 170.885C440.113 170.885 424.147 174.772 423.284 180.214C422.421 185.656 423.284 196.928 421.989 199.26C420.695 201.592 416.811 205.09 418.537 219.861C420.263 234.631 416.736 253.309 416.736 253.309C432.855 267.164 455.187 258.611 477.656 249.79Z" fill="#FFAA5A"/>
<path d="M465.357 118.217C475.844 118.217 484.344 112.996 484.344 106.556C484.344 100.116 475.844 94.8956 465.357 94.8956C454.871 94.8956 446.37 100.116 446.37 106.556C446.37 112.996 454.871 118.217 465.357 118.217Z" fill="#2F2E41"/>
<path d="M497.722 105.779C507.731 105.779 515.846 98.47 515.846 89.4538C515.846 80.4377 507.731 73.1287 497.722 73.1287C487.712 73.1287 479.598 80.4377 479.598 89.4538C479.598 98.47 487.712 105.779 497.722 105.779Z" fill="#2F2E41"/>
<path d="M510.667 101.115C506.123 101.114 501.744 99.5754 498.4 96.8036C495.055 94.0319 492.989 90.2294 492.611 86.1499C492.57 86.599 492.543 87.0518 492.543 87.5104C492.544 91.8385 494.453 95.9892 497.85 99.05C501.247 102.111 505.855 103.831 510.66 103.833C515.465 103.835 520.074 102.118 523.474 99.0598C526.874 96.0016 528.786 91.8523 528.791 87.5243V87.5104C528.791 87.0518 528.765 86.599 528.724 86.1499C528.345 90.2294 526.279 94.0319 522.935 96.8036C519.59 99.5754 515.212 101.114 510.667 101.115V101.115Z" fill="#2F2E41"/>
<path d="M468.159 350.792H462.13L450.082 445.453L489.82 444.252L468.159 350.792Z" fill="#FFAA5A"/>
<path opacity="0.2" d="M468.159 350.792H462.13L450.082 445.453L489.82 444.252L468.159 350.792Z" fill="black"/>
<path d="M466.149 349.583L458.787 444.853L548.978 450.884L556.34 358.024L466.149 349.583Z" fill="#FFAA5A"/>
<path opacity="0.2" d="M496.516 359.234C497.257 359.234 497.858 358.692 497.858 358.024C497.858 357.356 497.257 356.815 496.516 356.815C495.774 356.815 495.173 357.356 495.173 358.024C495.173 358.692 495.774 359.234 496.516 359.234Z" fill="black"/>
<path opacity="0.2" d="M524.631 362.245C525.373 362.245 525.974 361.704 525.974 361.036C525.974 360.368 525.373 359.826 524.631 359.826C523.89 359.826 523.288 360.368 523.288 361.036C523.288 361.704 523.89 362.245 524.631 362.245Z" fill="black"/>
<path d="M524.965 361.044H524.298C524.298 360.785 524.77 335.352 508.555 333.008C505.36 332.549 502.748 333.199 500.794 334.943C494.098 340.924 496.867 357.816 496.895 357.983L496.238 358.074C496.117 357.365 493.395 340.707 500.331 334.518C502.442 332.624 505.258 331.915 508.666 332.407C525.446 334.826 524.974 360.785 524.965 361.044Z" fill="#3F3D56"/>
<path d="M510.02 229.578L507.862 251.345L512.178 316.646C512.178 316.646 522.103 349.685 506.999 348.907C491.896 348.13 497.506 314.313 497.506 314.313L490.601 238.518L510.02 229.578Z" fill="#9F616A"/>
<path d="M497.506 170.497L508.725 175.938C508.725 175.938 523.829 268.404 515.198 277.344C506.568 286.284 488.875 289.782 488.012 286.284C487.149 282.786 484.129 211.698 484.129 211.698L497.506 170.497Z" fill="#FFAA5A"/>
</g>
<defs>
<clipPath id="clip0">
<rect width="613" height="539" fill="white"/>
</clipPath>
</defs>
</svg>
